<mxfile host="app.diagrams.net" agent="Mozilla/5.0 (Windows NT 10.0; Win64; x64) AppleWebKit/537.36 (KHTML, like Gecko) Chrome/132.0.0.0 Safari/537.36" version="26.0.10">
  <diagram name="Pagina-1" id="EOiqg43EqLUInJhQXQxb">
    <mxGraphModel dx="1500" dy="796" grid="1" gridSize="10" guides="1" tooltips="1" connect="1" arrows="1" fold="1" page="1" pageScale="1" pageWidth="827" pageHeight="1169" math="0" shadow="0">
      <root>
        <mxCell id="0" />
        <mxCell id="1" parent="0" />
        <mxCell id="9Hc3MsoBNKqIng2-46UL-1" value="Start" style="ellipse;whiteSpace=wrap;html=1;" vertex="1" parent="1">
          <mxGeometry x="380" y="10" width="120" height="80" as="geometry" />
        </mxCell>
        <mxCell id="9Hc3MsoBNKqIng2-46UL-2" value="read n" style="shape=parallelogram;perimeter=parallelogramPerimeter;whiteSpace=wrap;html=1;fixedSize=1;" vertex="1" parent="1">
          <mxGeometry x="370" y="130" width="120" height="60" as="geometry" />
        </mxCell>
        <mxCell id="9Hc3MsoBNKqIng2-46UL-19" style="edgeStyle=orthogonalEdgeStyle;rounded=0;orthogonalLoop=1;jettySize=auto;html=1;" edge="1" parent="1" source="9Hc3MsoBNKqIng2-46UL-3" target="9Hc3MsoBNKqIng2-46UL-4">
          <mxGeometry relative="1" as="geometry" />
        </mxCell>
        <mxCell id="9Hc3MsoBNKqIng2-46UL-22" style="edgeStyle=orthogonalEdgeStyle;rounded=0;orthogonalLoop=1;jettySize=auto;html=1;exitX=0.5;exitY=1;exitDx=0;exitDy=0;entryX=0.5;entryY=0;entryDx=0;entryDy=0;" edge="1" parent="1" source="9Hc3MsoBNKqIng2-46UL-3" target="9Hc3MsoBNKqIng2-46UL-5">
          <mxGeometry relative="1" as="geometry" />
        </mxCell>
        <mxCell id="9Hc3MsoBNKqIng2-46UL-3" value="n=int" style="rhombus;whiteSpace=wrap;html=1;" vertex="1" parent="1">
          <mxGeometry x="390" y="230" width="80" height="80" as="geometry" />
        </mxCell>
        <mxCell id="9Hc3MsoBNKqIng2-46UL-23" style="edgeStyle=orthogonalEdgeStyle;rounded=0;orthogonalLoop=1;jettySize=auto;html=1;" edge="1" parent="1" source="9Hc3MsoBNKqIng2-46UL-4" target="9Hc3MsoBNKqIng2-46UL-2">
          <mxGeometry relative="1" as="geometry">
            <Array as="points">
              <mxPoint x="700" y="160" />
            </Array>
          </mxGeometry>
        </mxCell>
        <mxCell id="9Hc3MsoBNKqIng2-46UL-4" value="write&amp;nbsp;&lt;div&gt;&quot;inserisci n intero&quot;&lt;/div&gt;" style="shape=parallelogram;perimeter=parallelogramPerimeter;whiteSpace=wrap;html=1;fixedSize=1;" vertex="1" parent="1">
          <mxGeometry x="590" y="240" width="160" height="60" as="geometry" />
        </mxCell>
        <mxCell id="9Hc3MsoBNKqIng2-46UL-24" style="edgeStyle=orthogonalEdgeStyle;rounded=0;orthogonalLoop=1;jettySize=auto;html=1;entryX=0.5;entryY=0;entryDx=0;entryDy=0;" edge="1" parent="1" source="9Hc3MsoBNKqIng2-46UL-5" target="9Hc3MsoBNKqIng2-46UL-6">
          <mxGeometry relative="1" as="geometry" />
        </mxCell>
        <mxCell id="9Hc3MsoBNKqIng2-46UL-5" value="somma pari = 0&lt;div&gt;somma dispari = 0&lt;/div&gt;" style="rounded=0;whiteSpace=wrap;html=1;" vertex="1" parent="1">
          <mxGeometry x="370" y="340" width="120" height="60" as="geometry" />
        </mxCell>
        <mxCell id="9Hc3MsoBNKqIng2-46UL-25" style="edgeStyle=orthogonalEdgeStyle;rounded=0;orthogonalLoop=1;jettySize=auto;html=1;exitX=1;exitY=0.5;exitDx=0;exitDy=0;" edge="1" parent="1" source="9Hc3MsoBNKqIng2-46UL-6" target="9Hc3MsoBNKqIng2-46UL-7">
          <mxGeometry relative="1" as="geometry" />
        </mxCell>
        <mxCell id="9Hc3MsoBNKqIng2-46UL-26" value="False" style="edgeLabel;html=1;align=center;verticalAlign=middle;resizable=0;points=[];" vertex="1" connectable="0" parent="9Hc3MsoBNKqIng2-46UL-25">
          <mxGeometry x="-0.0824" y="1" relative="1" as="geometry">
            <mxPoint as="offset" />
          </mxGeometry>
        </mxCell>
        <mxCell id="9Hc3MsoBNKqIng2-46UL-27" value="True" style="edgeStyle=orthogonalEdgeStyle;rounded=0;orthogonalLoop=1;jettySize=auto;html=1;exitX=0.5;exitY=1;exitDx=0;exitDy=0;entryX=0.5;entryY=0;entryDx=0;entryDy=0;" edge="1" parent="1" source="9Hc3MsoBNKqIng2-46UL-6" target="9Hc3MsoBNKqIng2-46UL-8">
          <mxGeometry relative="1" as="geometry" />
        </mxCell>
        <mxCell id="9Hc3MsoBNKqIng2-46UL-6" value="n&amp;gt;0" style="rhombus;whiteSpace=wrap;html=1;" vertex="1" parent="1">
          <mxGeometry x="390" y="470" width="80" height="80" as="geometry" />
        </mxCell>
        <mxCell id="9Hc3MsoBNKqIng2-46UL-47" style="edgeStyle=orthogonalEdgeStyle;rounded=0;orthogonalLoop=1;jettySize=auto;html=1;" edge="1" parent="1" source="9Hc3MsoBNKqIng2-46UL-7">
          <mxGeometry relative="1" as="geometry">
            <mxPoint x="940" y="1171.142926897321" as="targetPoint" />
          </mxGeometry>
        </mxCell>
        <mxCell id="9Hc3MsoBNKqIng2-46UL-7" value="write&amp;nbsp;&lt;div&gt;&quot;errore&quot;&lt;/div&gt;" style="shape=parallelogram;perimeter=parallelogramPerimeter;whiteSpace=wrap;html=1;fixedSize=1;" vertex="1" parent="1">
          <mxGeometry x="700" y="480" width="120" height="60" as="geometry" />
        </mxCell>
        <mxCell id="9Hc3MsoBNKqIng2-46UL-8" value="n&amp;gt;=1&amp;nbsp;&lt;div&gt;and&amp;nbsp;&lt;/div&gt;&lt;div&gt;n&amp;gt;=100&lt;/div&gt;" style="rhombus;whiteSpace=wrap;html=1;" vertex="1" parent="1">
          <mxGeometry x="375" y="610" width="110" height="80" as="geometry" />
        </mxCell>
        <mxCell id="9Hc3MsoBNKqIng2-46UL-33" style="edgeStyle=orthogonalEdgeStyle;rounded=0;orthogonalLoop=1;jettySize=auto;html=1;exitX=0.5;exitY=1;exitDx=0;exitDy=0;entryX=0.5;entryY=0;entryDx=0;entryDy=0;" edge="1" parent="1" source="9Hc3MsoBNKqIng2-46UL-9" target="9Hc3MsoBNKqIng2-46UL-11">
          <mxGeometry relative="1" as="geometry" />
        </mxCell>
        <mxCell id="9Hc3MsoBNKqIng2-46UL-9" value="i=2" style="rounded=0;whiteSpace=wrap;html=1;" vertex="1" parent="1">
          <mxGeometry x="200" y="680" width="120" height="60" as="geometry" />
        </mxCell>
        <mxCell id="9Hc3MsoBNKqIng2-46UL-32" style="edgeStyle=orthogonalEdgeStyle;rounded=0;orthogonalLoop=1;jettySize=auto;html=1;exitX=0.25;exitY=1;exitDx=0;exitDy=0;entryX=0.5;entryY=0;entryDx=0;entryDy=0;" edge="1" parent="1" source="9Hc3MsoBNKqIng2-46UL-10" target="9Hc3MsoBNKqIng2-46UL-15">
          <mxGeometry relative="1" as="geometry">
            <Array as="points">
              <mxPoint x="580" y="740" />
              <mxPoint x="580" y="760" />
              <mxPoint x="570" y="760" />
            </Array>
          </mxGeometry>
        </mxCell>
        <mxCell id="9Hc3MsoBNKqIng2-46UL-10" value="i=1" style="rounded=0;whiteSpace=wrap;html=1;" vertex="1" parent="1">
          <mxGeometry x="520" y="680" width="120" height="60" as="geometry" />
        </mxCell>
        <mxCell id="9Hc3MsoBNKqIng2-46UL-36" value="True" style="edgeStyle=orthogonalEdgeStyle;rounded=0;orthogonalLoop=1;jettySize=auto;html=1;exitX=0.5;exitY=1;exitDx=0;exitDy=0;" edge="1" parent="1" source="9Hc3MsoBNKqIng2-46UL-11">
          <mxGeometry relative="1" as="geometry">
            <mxPoint x="260" y="900" as="targetPoint" />
          </mxGeometry>
        </mxCell>
        <mxCell id="9Hc3MsoBNKqIng2-46UL-37" value="False" style="edgeStyle=orthogonalEdgeStyle;rounded=0;orthogonalLoop=1;jettySize=auto;html=1;exitX=0;exitY=0.5;exitDx=0;exitDy=0;" edge="1" parent="1" source="9Hc3MsoBNKqIng2-46UL-11" target="9Hc3MsoBNKqIng2-46UL-14">
          <mxGeometry relative="1" as="geometry" />
        </mxCell>
        <mxCell id="9Hc3MsoBNKqIng2-46UL-11" value="i&amp;lt;=n" style="rhombus;whiteSpace=wrap;html=1;" vertex="1" parent="1">
          <mxGeometry x="220" y="780" width="80" height="80" as="geometry" />
        </mxCell>
        <mxCell id="9Hc3MsoBNKqIng2-46UL-13" value="Sp+=1" style="rounded=0;whiteSpace=wrap;html=1;" vertex="1" parent="1">
          <mxGeometry x="190" y="910" width="120" height="60" as="geometry" />
        </mxCell>
        <mxCell id="9Hc3MsoBNKqIng2-46UL-48" style="edgeStyle=orthogonalEdgeStyle;rounded=0;orthogonalLoop=1;jettySize=auto;html=1;exitX=0.5;exitY=1;exitDx=0;exitDy=0;" edge="1" parent="1" source="9Hc3MsoBNKqIng2-46UL-14">
          <mxGeometry relative="1" as="geometry">
            <mxPoint x="70" y="1169.9999999999998" as="targetPoint" />
          </mxGeometry>
        </mxCell>
        <mxCell id="9Hc3MsoBNKqIng2-46UL-14" value="write&lt;div&gt;&quot;somma pari è:&quot;&lt;/div&gt;" style="shape=parallelogram;perimeter=parallelogramPerimeter;whiteSpace=wrap;html=1;fixedSize=1;" vertex="1" parent="1">
          <mxGeometry x="10" y="790" width="120" height="60" as="geometry" />
        </mxCell>
        <mxCell id="9Hc3MsoBNKqIng2-46UL-38" value="" style="edgeStyle=orthogonalEdgeStyle;rounded=0;orthogonalLoop=1;jettySize=auto;html=1;" edge="1" parent="1" source="9Hc3MsoBNKqIng2-46UL-15" target="9Hc3MsoBNKqIng2-46UL-16">
          <mxGeometry relative="1" as="geometry" />
        </mxCell>
        <mxCell id="9Hc3MsoBNKqIng2-46UL-39" value="False" style="edgeLabel;html=1;align=center;verticalAlign=middle;resizable=0;points=[];" vertex="1" connectable="0" parent="9Hc3MsoBNKqIng2-46UL-38">
          <mxGeometry x="0.2533" y="-1" relative="1" as="geometry">
            <mxPoint as="offset" />
          </mxGeometry>
        </mxCell>
        <mxCell id="9Hc3MsoBNKqIng2-46UL-15" value="i&amp;lt;=n" style="rhombus;whiteSpace=wrap;html=1;" vertex="1" parent="1">
          <mxGeometry x="540" y="790" width="80" height="80" as="geometry" />
        </mxCell>
        <mxCell id="9Hc3MsoBNKqIng2-46UL-49" style="edgeStyle=orthogonalEdgeStyle;rounded=0;orthogonalLoop=1;jettySize=auto;html=1;" edge="1" parent="1" source="9Hc3MsoBNKqIng2-46UL-16">
          <mxGeometry relative="1" as="geometry">
            <mxPoint x="760" y="1170" as="targetPoint" />
          </mxGeometry>
        </mxCell>
        <mxCell id="9Hc3MsoBNKqIng2-46UL-16" value="write&lt;div&gt;&quot;somma dispari è:&quot;&lt;/div&gt;" style="shape=parallelogram;perimeter=parallelogramPerimeter;whiteSpace=wrap;html=1;fixedSize=1;" vertex="1" parent="1">
          <mxGeometry x="690" y="790" width="120" height="60" as="geometry" />
        </mxCell>
        <mxCell id="9Hc3MsoBNKqIng2-46UL-17" value="Sd+=1" style="rounded=0;whiteSpace=wrap;html=1;" vertex="1" parent="1">
          <mxGeometry x="510" y="910" width="120" height="60" as="geometry" />
        </mxCell>
        <mxCell id="9Hc3MsoBNKqIng2-46UL-46" style="edgeStyle=orthogonalEdgeStyle;rounded=0;orthogonalLoop=1;jettySize=auto;html=1;exitX=0;exitY=0.5;exitDx=0;exitDy=0;entryX=0;entryY=0.5;entryDx=0;entryDy=0;" edge="1" parent="1" source="9Hc3MsoBNKqIng2-46UL-18" target="9Hc3MsoBNKqIng2-46UL-15">
          <mxGeometry relative="1" as="geometry">
            <mxPoint x="470" y="810" as="targetPoint" />
            <Array as="points">
              <mxPoint x="440" y="1050" />
              <mxPoint x="440" y="830" />
            </Array>
          </mxGeometry>
        </mxCell>
        <mxCell id="9Hc3MsoBNKqIng2-46UL-18" value="i+=1" style="rounded=0;whiteSpace=wrap;html=1;" vertex="1" parent="1">
          <mxGeometry x="510" y="1020" width="120" height="60" as="geometry" />
        </mxCell>
        <mxCell id="9Hc3MsoBNKqIng2-46UL-20" style="edgeStyle=orthogonalEdgeStyle;rounded=0;orthogonalLoop=1;jettySize=auto;html=1;entryX=0.51;entryY=0.088;entryDx=0;entryDy=0;entryPerimeter=0;" edge="1" parent="1" source="9Hc3MsoBNKqIng2-46UL-2" target="9Hc3MsoBNKqIng2-46UL-3">
          <mxGeometry relative="1" as="geometry" />
        </mxCell>
        <mxCell id="9Hc3MsoBNKqIng2-46UL-21" style="edgeStyle=orthogonalEdgeStyle;rounded=0;orthogonalLoop=1;jettySize=auto;html=1;exitX=0.5;exitY=1;exitDx=0;exitDy=0;entryX=0.613;entryY=0.063;entryDx=0;entryDy=0;entryPerimeter=0;" edge="1" parent="1" source="9Hc3MsoBNKqIng2-46UL-1" target="9Hc3MsoBNKqIng2-46UL-2">
          <mxGeometry relative="1" as="geometry" />
        </mxCell>
        <mxCell id="9Hc3MsoBNKqIng2-46UL-28" style="edgeStyle=orthogonalEdgeStyle;rounded=0;orthogonalLoop=1;jettySize=auto;html=1;exitX=1;exitY=0.5;exitDx=0;exitDy=0;entryX=0.583;entryY=-0.01;entryDx=0;entryDy=0;entryPerimeter=0;" edge="1" parent="1" source="9Hc3MsoBNKqIng2-46UL-8" target="9Hc3MsoBNKqIng2-46UL-10">
          <mxGeometry relative="1" as="geometry" />
        </mxCell>
        <mxCell id="9Hc3MsoBNKqIng2-46UL-31" value="False" style="edgeLabel;html=1;align=center;verticalAlign=middle;resizable=0;points=[];" vertex="1" connectable="0" parent="9Hc3MsoBNKqIng2-46UL-28">
          <mxGeometry x="-0.2351" relative="1" as="geometry">
            <mxPoint as="offset" />
          </mxGeometry>
        </mxCell>
        <mxCell id="9Hc3MsoBNKqIng2-46UL-29" style="edgeStyle=orthogonalEdgeStyle;rounded=0;orthogonalLoop=1;jettySize=auto;html=1;exitX=0;exitY=0.5;exitDx=0;exitDy=0;entryX=0.333;entryY=0;entryDx=0;entryDy=0;entryPerimeter=0;" edge="1" parent="1" source="9Hc3MsoBNKqIng2-46UL-8" target="9Hc3MsoBNKqIng2-46UL-9">
          <mxGeometry relative="1" as="geometry" />
        </mxCell>
        <mxCell id="9Hc3MsoBNKqIng2-46UL-30" value="True" style="edgeLabel;html=1;align=center;verticalAlign=middle;resizable=0;points=[];" vertex="1" connectable="0" parent="9Hc3MsoBNKqIng2-46UL-29">
          <mxGeometry x="-0.1442" relative="1" as="geometry">
            <mxPoint as="offset" />
          </mxGeometry>
        </mxCell>
        <mxCell id="9Hc3MsoBNKqIng2-46UL-35" value="True" style="edgeStyle=orthogonalEdgeStyle;rounded=0;orthogonalLoop=1;jettySize=auto;html=1;entryX=0.593;entryY=0.063;entryDx=0;entryDy=0;entryPerimeter=0;" edge="1" parent="1" source="9Hc3MsoBNKqIng2-46UL-15" target="9Hc3MsoBNKqIng2-46UL-17">
          <mxGeometry relative="1" as="geometry" />
        </mxCell>
        <mxCell id="9Hc3MsoBNKqIng2-46UL-40" value="End" style="ellipse;whiteSpace=wrap;html=1;aspect=fixed;" vertex="1" parent="1">
          <mxGeometry x="350" y="1200" width="80" height="80" as="geometry" />
        </mxCell>
        <mxCell id="9Hc3MsoBNKqIng2-46UL-52" style="edgeStyle=orthogonalEdgeStyle;rounded=0;orthogonalLoop=1;jettySize=auto;html=1;exitX=0;exitY=1;exitDx=0;exitDy=0;" edge="1" parent="1" source="9Hc3MsoBNKqIng2-46UL-41">
          <mxGeometry relative="1" as="geometry">
            <mxPoint x="391.42857142857156" y="1169.9999999999998" as="targetPoint" />
          </mxGeometry>
        </mxCell>
        <mxCell id="9Hc3MsoBNKqIng2-46UL-56" style="edgeStyle=orthogonalEdgeStyle;rounded=0;orthogonalLoop=1;jettySize=auto;html=1;exitX=0.5;exitY=1;exitDx=0;exitDy=0;entryX=0.5;entryY=0;entryDx=0;entryDy=0;" edge="1" parent="1" source="9Hc3MsoBNKqIng2-46UL-41" target="9Hc3MsoBNKqIng2-46UL-40">
          <mxGeometry relative="1" as="geometry" />
        </mxCell>
        <mxCell id="9Hc3MsoBNKqIng2-46UL-41" value="" style="ellipse;whiteSpace=wrap;html=1;aspect=fixed;" vertex="1" parent="1">
          <mxGeometry x="370" y="1150" width="30" height="30" as="geometry" />
        </mxCell>
        <mxCell id="9Hc3MsoBNKqIng2-46UL-45" style="edgeStyle=orthogonalEdgeStyle;rounded=0;orthogonalLoop=1;jettySize=auto;html=1;entryX=0.995;entryY=0.423;entryDx=0;entryDy=0;entryPerimeter=0;" edge="1" parent="1" source="9Hc3MsoBNKqIng2-46UL-44" target="9Hc3MsoBNKqIng2-46UL-11">
          <mxGeometry relative="1" as="geometry">
            <mxPoint x="420" y="840" as="targetPoint" />
            <Array as="points">
              <mxPoint x="360" y="1040" />
              <mxPoint x="360" y="814" />
            </Array>
          </mxGeometry>
        </mxCell>
        <mxCell id="9Hc3MsoBNKqIng2-46UL-44" value="i+=1" style="rounded=0;whiteSpace=wrap;html=1;" vertex="1" parent="1">
          <mxGeometry x="190" y="1010" width="120" height="60" as="geometry" />
        </mxCell>
        <mxCell id="9Hc3MsoBNKqIng2-46UL-51" value="" style="endArrow=none;html=1;rounded=0;" edge="1" parent="1">
          <mxGeometry width="50" height="50" relative="1" as="geometry">
            <mxPoint x="70" y="1170" as="sourcePoint" />
            <mxPoint x="370" y="1170" as="targetPoint" />
          </mxGeometry>
        </mxCell>
        <mxCell id="9Hc3MsoBNKqIng2-46UL-54" value="" style="endArrow=none;html=1;rounded=0;exitX=1;exitY=0.5;exitDx=0;exitDy=0;" edge="1" parent="1" source="9Hc3MsoBNKqIng2-46UL-41">
          <mxGeometry width="50" height="50" relative="1" as="geometry">
            <mxPoint x="370" y="1180" as="sourcePoint" />
            <mxPoint x="940" y="1170" as="targetPoint" />
          </mxGeometry>
        </mxCell>
        <mxCell id="9Hc3MsoBNKqIng2-46UL-55" value="Text" style="edgeLabel;html=1;align=center;verticalAlign=middle;resizable=0;points=[];" vertex="1" connectable="0" parent="9Hc3MsoBNKqIng2-46UL-54">
          <mxGeometry x="-0.6507" y="-2" relative="1" as="geometry">
            <mxPoint as="offset" />
          </mxGeometry>
        </mxCell>
      </root>
    </mxGraphModel>
  </diagram>
</mxfile>
